# xmcd CD database file
#
# Track frame offsets:
#	150
#	15857
#	35417
#	51112
#	67280
#	90765
#	107552
#	123575
#	135765
#	150365
#	162335
#
# Disc length: 2375 seconds
#
# Revision: 0
# Processed by: cddbd v1.4PL0 Copyright (c) Steve Scherf et al.
# Submitted via: CDex 1.51
#
DISCID=7909450b
DTITLE=The Happening Thang - Saddlepop
DYEAR=1990
DGENRE=Country
TTITLE0=Wasting My Time
TTITLE1=(When You're On) The Losing End
TTITLE2=Sittin' By A Fireplace
TTITLE3=Small House
TTITLE4=Lazy
TTITLE5=Go Now
TTITLE6=Another Glass Of Poison
TTITLE7=Half A Boy And Half A Man
TTITLE8=Happy
TTITLE9=Self Defence
TTITLE10=Tyre Trouble
EXTD=YEAR: 1990
EXTT0=
EXTT1=
EXTT2=
EXTT3=
EXTT4=
EXTT5=
EXTT6=
EXTT7=
EXTT8=
EXTT9=
EXTT10=
PLAYORDER=
